<?xml version="1.0" encoding="UTF-8"?>
<svg width="661px" height="618px" viewBox="0 0 661 618" version="1.1" xmlns="http://www.w3.org/2000/svg" xmlns:xlink="http://www.w3.org/1999/xlink">
    <!-- Generator: Sketch 56.3 (81716) - https://sketch.com -->
    <title>Fill 11</title>
    <desc>Created with Sketch.</desc>
    <defs>
        <path d="M378.681259,2.80924874 C384.196619,0.417765899 389.470566,-0.788137627 396.31473,0.565455208 C410.308435,3.33496848 424.844804,5.04897742 438.506309,8.35775991 C446.237717,10.2316527 452.733173,14.3520489 459.684632,17.5537905 C495.591217,34.0882183 531.522562,50.599612 567.328042,67.2288861 C587.860534,76.7636537 608.492068,86.2279639 628.461262,96.2545775 C640.199715,102.1486 650.654759,109.142841 657.845567,117.838896 C659.120723,119.382181 659.836709,121.239815 660.104946,122.999892 C660.612533,126.323579 660.437147,129.691979 660.849819,133.02515 C662.073391,142.90814 655.549048,151.624519 651.131395,160.614597 C635.045443,193.344716 618.297153,225.935275 604.761513,259.184339 C602.182314,265.521429 600.612097,271.97911 598.228917,278.329751 C595.705428,285.053002 593.175749,291.774898 590.718287,298.507633 C588.304157,305.127908 586.061285,311.776637 583.599697,318.390137 C571.083357,352.006391 558.445279,385.600967 546.007347,419.228061 C539.322062,437.304419 532.981357,455.43362 526.432254,473.530303 C522.590278,484.147674 518.585297,494.739301 514.766018,505.356671 C506.950012,527.077839 499.323835,548.826106 491.38609,570.52695 C487.696803,580.614536 484.523356,590.875556 479.069896,600.559368 C475.974857,606.053681 470.894865,611.829823 460.05191,613.32975 C452.495887,614.374415 444.991448,615.768656 437.732549,617.49215 C433.327276,618.54088 429.565771,617.803788 425.969335,616.742864 C413.275547,612.997788 400.602392,609.19445 388.244931,605.002241 C384.369941,603.689297 380.150371,602.159561 379.30233,598.29796 C378.953622,596.714026 374.350267,595.452569 371.521401,594.201953 C348.843015,584.171274 325.826238,574.459008 303.492433,564.111272 C268.78466,548.029397 234.541143,531.513938 200.087163,515.194947 C173.502837,502.603418 146.8009,490.120284 120.344502,477.416293 C107.458821,471.228247 94.8455037,464.78005 82.4385221,458.185519 C75.714033,454.609812 69.1608027,450.776665 63.4494232,446.526194 C54.5192025,439.88153 46.3771853,432.781603 37.8802702,425.883564 C35.5197868,423.969023 32.6971108,422.244174 30.80501,420.15078 C29.2533635,418.432706 29.0738512,416.205172 27.7553644,414.365153 C17.3828554,399.898376 11.6178285,384.427582 4.18560699,369.29688 C-4.50732726,351.598552 1.85813729,335.001797 9.51939171,318.42672 C18.7054689,298.550991 33.4502371,280.225323 49.5898363,262.466022 C57.7566139,253.478653 67.091253,244.896414 76.7457128,236.555356 C100.166908,216.32192 124.103944,196.345925 147.801629,176.250695 C166.454401,160.433034 185.169073,144.646538 203.660902,128.74758 C227.857921,107.947777 251.481326,86.8539498 276.066256,66.2560336 C296.138619,49.4384217 319.165713,34.4201805 344.672965,21.0793646 C356.128738,15.0891405 367.351351,8.90515881 378.681259,2.80924874" id="path-1"></path>
    </defs>
    <g id="R3" stroke="none" stroke-width="1" fill="none" fill-rule="evenodd">
        <g id="Desktop-Comp-Copy" transform="translate(-669.000000, -96.000000)">
            <g id="Group-6" transform="translate(669.000000, 96.000000)">
                <mask id="mask-2" fill="white">
                    <use xlink:href="#path-1"></use>
                </mask>
                <use id="Fill-11" fill="#231F20" xlink:href="#path-1"></use>
            </g>
        </g>
    </g>
</svg>